<svg xmlns="http://www.w3.org/2000/svg" width="668" height="107" fill="none"><title>Marathon</title><path fill="#EAFC88" d="M398.513 13.572h-13.494v92.168h-15.904V13.567h-13.494V.986h42.892v12.586ZM459.914 105.735h-16.047V.991h16.047v44.576h10.936V.991h16.047v104.744H470.85V57.083h-10.936v48.652ZM577.701 82.36c0 14.643-4.973 24.64-20.451 24.64h-2.697c-15.339 0-20.733-9.997-20.733-24.64V24.075C533.82 9.433 539.219 0 554.415 0h2.697c15.621 0 20.594 9.575 20.594 23.933V82.36h-.005ZM561.367 20.6c0-5.351-1.846-8.025-5.537-8.025-4.117 0-5.681 2.537-5.681 8.026V86.12c0 4.503 1.277 8.025 5.824 8.025 4.548 0 5.399-3.517 5.399-8.025V20.6h-.005ZM130.93.991h-19.031L98.974 105.735h14.345l1.989-19.71h11.787l2.128 19.71h15.478L130.925.991h.005Zm-14.478 74.673 3.329-31.325.304-14.253c0-.58.473-1.054 1.063-1.054.591 0 1.064.47 1.064 1.054l.314 14.284 3.441 31.289h-9.52l.005.005ZM305.932.991h-19.031l-12.925 104.744h14.345l1.99-19.71h11.786l2.128 19.71h15.478L305.927.991h.005Zm-14.478 74.673 3.33-31.325.303-14.253c0-.58.473-1.054 1.064-1.054.59 0 1.064.47 1.064 1.054l.313 14.284 3.442 31.289h-9.521l.005.005ZM652.884.991V46.29l2.521 12.044a1.053 1.053 0 0 1-.787 1.27 1.062 1.062 0 0 1-1.282-.78L639.102.99h-14.483v104.744h14.483V56.582l-3.59-16.62a1.05 1.05 0 0 1 .771-1.276c.57-.142 1.144.2 1.288.765.09.369 16.866 66.284 16.866 66.284H667.5V.991h-14.627.011ZM223.723 61.248c2.841-1.128 6.957-4.645 6.957-13.377V17.18c0-11.827-5.255-16.193-16.047-16.193h-25.988v104.743h16.047V15.207h4.261c4.973 0 5.824 2.251 5.824 6.76v26.748c0 4.645-1.42 7.46-5.824 7.46h-.053c-.58.012-1.048.476-1.048 1.056 0 .58 1.048 10.113 1.048 10.113l6.935 38.385h15.904l-8.021-44.486.005.005ZM35.514.96 29.158 46.4s-.324 14.379-.324 14.627c0 .58-.474 1.054-1.064 1.054-.59 0-1.064-.469-1.064-1.054 0-.253-.324-14.627-.324-14.627L20.026.96H.5v104.743h14.345V57.299s-2.09-18.782-2.133-19.156a1.053 1.053 0 0 1 .936-1.165 1.058 1.058 0 0 1 1.176.928l9.058 62.535h7.781l9.058-62.535c.064-.58.59-.991 1.176-.928.585.063 1 .585.936 1.165L40.7 57.3v48.404h14.345V.96h-19.53Z"/></svg>